<svg xmlns="http://www.w3.org/2000/svg" width="165" height="20" viewBox="0 0 165 20" id="decor" y="863" style="fill:#6d601e;"><path d="M0 12.097h44.4v1.02H0zM120.6 12.097H165v1.02h-44.4zM57.7 13.497a.9.9 0 0 1 .2-1.3 1.5 1.5 0 0 1 1.8 1.3 1.8 1.8 0 0 1-2 1.7 2.4 2.4 0 0 1-2.4-2.8c.2-1.8 1.4-2.5 3.1-2.7a5.3 5.3 0 0 1 5.5 5.9c-.5 3.4-3.4 4.5-5.9 4.4s-8.5-2.6-8.5-9.4 6.7-10.6 13.3-10.6 11.5 2.1 19.7 9c1.3 1.1 4.2 4.4 16 5.5-4.3.1-10.3 1.2-16.4-3.8s-9.9-7-13.3-6.9-3.8 1.8-3.8 3a2.2 2.2 0 0 0 2.2 2.2c1.1-.1 2.8-1.3.5-2.5 1.1 0 2.5.4 2.5 1.7a3.1 3.1 0 0 1-3.449 2.707l-.051-.007c-2.1-.1-3.7-1.4-3.8-4.2s2.7-4.4 5.1-4.5a17.886 17.886 0 0 0-5.4-.6c-1.4 0-11 1.5-10.9 9.5.2 2.4 1.9 7.3 6.9 7.5 1.2 0 4.4-.4 4.5-3.7a4.4 4.4 0 0 0-4.7-4.5c-1.6.2-2.2.9-2.3 1.7a1.2 1.2 0 0 0 1.5 1.3" /><path  d="M107.6 13.497a.9.9 0 0 0-.2-1.3 1.5 1.5 0 0 0-1.8 1.3 1.8 1.8 0 0 0 2 1.7 2.4 2.4 0 0 0 2.4-2.8c-.2-1.8-1.4-2.5-3.1-2.7a5.3 5.3 0 0 0-5.5 5.9c.5 3.4 3.4 4.5 5.9 4.4s8.5-2.6 8.5-9.4-6.8-10.6-13.3-10.6-11.6 2.1-19.8 9c-1.3 1.1-4.2 4.4-16 5.5 4.3.1 10.3 1.2 16.4-3.9s9.9-6.9 13.4-6.8 3.8 1.8 3.8 2.9a2.2 2.2 0 0 1-2.098 2.298c-.034.002-.068.002-.102.002-1.1-.1-2.8-1.3-.5-2.5-1.1 0-2.5.4-2.4 1.7a3.1 3.1 0 0 0 3.449 2.707l.051-.007c2.1-.1 3.7-1.4 3.8-4.2s-2.7-4.4-5.1-4.5a17.886 17.886 0 0 1 5.4-.6c1.4 0 11 1.5 10.9 9.5-.2 2.4-1.9 7.3-6.9 7.5-1.2 0-4.4-.4-4.5-3.7a4.4 4.4 0 0 1 4.7-4.5c1.6.2 2.2.9 2.3 1.7a1.2 1.2 0 0 1-1.5 1.3" /></svg>